<svg id="svg" version="1.1" xmlns="http://www.w3.org/2000/svg" xmlns:xlink="http://www.w3.org/1999/xlink" width="400" height="200" viewBox="0, 0, 400,200"><g id="svgg"><path id="path0" d="M132.818 58.828 C 126.596 59.434,123.186 62.699,123.138 68.100 C 123.081 74.488,127.395 78.000,135.300 78.000 C 143.128 78.000,147.488 74.520,147.451 68.300 C 147.411 61.413,142.032 57.932,132.818 58.828 M73.700 59.018 C 67.988 59.956,52.320 60.563,49.950 59.937 L 49.400 59.792 49.400 61.096 L 49.400 62.400 50.261 62.400 C 53.219 62.400,54.991 64.903,55.420 69.687 C 55.791 73.816,55.553 139.087,55.163 140.345 C 54.400 142.807,53.202 143.798,50.633 144.096 L 49.400 144.239 49.400 145.437 L 49.400 146.636 52.750 146.482 C 57.219 146.278,73.895 146.273,77.861 146.475 L 81.021 146.636 80.961 145.475 L 80.900 144.315 79.800 144.086 C 77.708 143.652,76.944 142.942,76.252 140.791 C 75.707 139.102,75.710 99.419,76.255 97.929 C 78.227 92.531,86.426 90.500,88.511 94.894 C 89.401 96.771,89.395 96.609,89.398 118.084 C 89.401 143.588,89.444 143.270,85.852 144.007 C 85.219 144.136,84.588 144.275,84.450 144.315 C 84.172 144.395,84.106 145.943,84.363 146.348 C 84.488 146.544,86.045 146.551,91.810 146.383 C 98.599 146.185,106.726 146.239,113.261 146.525 L 116.021 146.646 115.961 145.473 L 115.900 144.300 114.482 144.088 C 112.077 143.727,110.846 142.741,110.254 140.700 C 110.126 140.260,109.956 139.675,109.876 139.400 C 109.796 139.125,109.671 130.035,109.598 119.200 C 109.446 96.498,109.410 96.082,107.288 92.461 C 102.364 84.060,83.132 84.853,76.764 93.720 C 76.417 94.204,76.057 94.600,75.966 94.600 C 75.875 94.600,75.800 86.545,75.800 76.700 L 75.800 58.800 75.250 58.827 C 74.948 58.841,74.250 58.927,73.700 59.018 M34.200 71.070 C 29.300 73.546,23.592 74.788,16.153 74.996 C 16.072 74.998,15.982 77.948,15.953 81.550 L 15.900 88.100 11.700 88.200 L 7.500 88.300 7.438 89.281 C 7.354 90.609,7.301 90.593,11.950 90.597 L 16.000 90.600 16.000 111.709 C 16.000 134.688,16.084 136.835,17.094 139.823 C 18.968 145.361,23.562 148.037,31.200 148.037 C 38.099 148.037,42.924 145.710,46.381 140.717 C 47.366 139.294,47.362 139.342,46.550 138.603 C 45.720 137.848,45.768 137.840,44.649 138.897 C 41.914 141.482,37.839 141.916,36.654 139.748 C 36.321 139.138,36.300 137.679,36.300 114.900 L 36.300 90.700 41.700 90.592 C 44.670 90.532,47.123 90.465,47.150 90.442 C 47.178 90.419,47.200 89.906,47.200 89.303 L 47.200 88.206 41.750 88.153 L 36.300 88.100 36.248 79.150 C 36.219 74.228,36.129 70.202,36.048 70.205 C 35.967 70.208,35.135 70.597,34.200 71.070 M288.200 70.901 C 283.559 73.336,279.035 74.415,271.350 74.921 L 269.600 75.036 269.600 81.614 L 269.600 88.192 265.350 88.246 L 261.100 88.300 261.038 89.165 C 260.934 90.601,260.930 90.600,265.514 90.600 L 269.579 90.600 269.667 112.750 C 269.754 134.929,269.798 136.315,270.495 139.046 C 271.991 144.909,276.980 148.050,284.800 148.051 C 291.712 148.052,296.718 145.612,300.161 140.564 C 300.968 139.382,300.961 139.170,300.095 138.510 L 299.390 137.972 298.373 138.886 C 295.492 141.477,291.591 141.924,290.403 139.800 L 289.900 138.900 289.900 114.800 L 289.900 90.700 294.636 90.646 C 302.041 90.563,302.689 91.090,306.855 100.600 C 307.023 100.985,308.664 104.630,310.501 108.700 C 312.338 112.770,314.024 116.505,314.247 117.000 C 314.470 117.495,314.899 118.440,315.200 119.100 C 315.501 119.760,315.951 120.750,316.200 121.300 C 316.449 121.850,316.899 122.840,317.200 123.500 C 317.501 124.160,317.929 125.105,318.152 125.600 C 318.375 126.095,319.656 128.930,321.000 131.900 C 322.344 134.870,323.625 137.705,323.848 138.200 C 324.071 138.695,324.498 139.640,324.797 140.300 C 325.096 140.960,326.707 144.521,328.377 148.214 L 331.414 154.928 330.826 156.656 C 328.751 162.756,325.662 165.394,320.400 165.556 C 316.299 165.683,316.221 165.654,318.095 164.719 C 325.959 160.794,325.223 150.657,316.945 148.881 C 306.321 146.602,298.675 155.019,304.363 162.733 C 307.434 166.896,318.384 169.041,324.900 166.755 C 329.829 165.026,331.310 162.686,335.701 149.700 C 335.961 148.930,336.507 147.355,336.913 146.200 C 337.659 144.081,346.456 117.976,350.293 106.499 C 354.115 95.063,355.695 92.334,359.382 90.807 C 360.002 90.551,360.017 90.515,359.959 89.422 L 359.900 88.300 358.300 88.400 C 357.420 88.455,353.955 88.500,350.600 88.500 C 347.245 88.500,343.375 88.455,342.000 88.400 L 339.500 88.300 339.500 89.380 L 339.500 90.459 340.700 90.788 C 347.789 92.728,349.503 100.745,345.536 113.400 C 343.047 121.338,340.859 127.657,340.691 127.390 C 340.592 127.230,338.595 122.510,336.255 116.900 C 333.915 111.290,331.915 106.520,331.812 106.300 C 331.708 106.080,331.341 105.225,330.997 104.400 C 330.652 103.575,330.250 102.630,330.104 102.300 C 325.357 91.578,325.510 90.600,331.933 90.600 C 333.336 90.600,333.502 90.412,333.365 88.978 L 333.300 88.300 332.200 88.346 C 331.595 88.371,327.995 88.525,324.200 88.687 C 317.147 88.990,311.054 88.902,303.100 88.383 C 301.340 88.268,297.705 88.187,295.022 88.203 C 291.156 88.226,290.108 88.177,289.975 87.966 C 289.882 87.820,289.805 83.763,289.803 78.950 C 289.801 74.138,289.733 70.204,289.650 70.210 C 289.568 70.215,288.915 70.526,288.200 70.901 M195.500 86.829 C 190.746 87.291,186.806 89.568,184.405 93.240 C 183.236 95.028,183.200 94.952,183.200 90.667 L 183.200 86.957 182.650 87.095 C 182.061 87.243,178.835 87.696,175.900 88.043 C 174.910 88.160,170.185 88.280,165.400 88.310 L 156.700 88.363 156.635 89.009 C 156.508 90.281,156.677 90.495,158.035 90.775 C 160.913 91.369,162.018 92.754,162.677 96.588 C 163.161 99.407,163.165 137.143,162.681 139.529 C 162.074 142.524,160.980 143.650,158.274 144.061 L 156.700 144.300 156.648 145.200 C 156.564 146.656,155.977 146.579,165.628 146.372 C 171.032 146.257,177.850 146.256,183.528 146.372 C 193.921 146.583,193.000 146.677,193.000 145.402 C 193.000 144.283,193.024 144.298,190.900 144.105 C 185.841 143.645,183.843 141.686,183.398 136.749 C 183.152 134.013,183.157 101.724,183.405 99.818 C 183.981 95.375,188.614 90.600,192.347 90.600 C 193.230 90.600,193.168 90.751,191.855 91.800 C 187.346 95.404,186.417 103.317,190.121 106.577 C 193.693 109.721,200.513 109.836,204.359 106.817 C 210.428 102.052,208.683 89.351,201.678 87.310 C 200.786 87.050,197.759 86.563,197.436 86.627 C 197.361 86.642,196.490 86.733,195.500 86.829 M231.562 86.816 C 214.715 88.600,208.002 102.299,217.863 114.771 C 219.227 116.496,222.512 119.775,227.448 124.336 C 235.065 131.377,236.662 133.876,236.687 138.800 C 236.707 142.595,235.533 144.214,232.100 145.129 C 224.842 147.063,217.971 139.534,215.923 127.406 L 215.500 124.900 214.456 124.840 C 213.122 124.763,213.250 123.719,213.097 135.900 C 213.027 141.510,212.953 146.370,212.934 146.700 C 212.887 147.532,214.867 147.762,215.178 146.960 C 216.834 142.690,217.852 142.500,223.800 145.356 C 228.476 147.601,230.490 148.060,235.600 148.043 C 251.946 147.990,261.908 136.713,256.817 124.023 C 255.477 120.684,251.109 115.925,244.600 110.714 C 234.367 102.522,232.600 100.310,232.600 95.698 C 232.600 90.081,238.444 87.604,244.562 90.627 C 248.145 92.397,251.400 98.047,252.498 104.400 C 252.565 104.785,252.714 105.528,252.829 106.050 L 253.040 107.000 254.092 107.000 L 255.144 107.000 255.275 99.250 C 255.347 94.988,255.461 90.442,255.528 89.150 L 255.651 86.800 254.549 86.800 L 253.447 86.800 253.209 87.750 C 252.884 89.042,252.206 89.875,251.244 90.163 C 250.363 90.427,249.964 90.326,247.600 89.240 C 244.747 87.929,241.287 87.165,236.577 86.805 C 233.653 86.582,233.774 86.582,231.562 86.816 M145.383 87.082 C 145.248 87.214,141.132 87.778,137.900 88.108 C 135.684 88.333,132.914 88.403,127.300 88.375 L 119.700 88.336 119.641 89.421 L 119.583 90.506 120.921 90.759 C 123.305 91.212,124.612 92.523,125.344 95.200 C 125.909 97.263,125.891 138.918,125.325 140.644 C 124.622 142.785,123.348 143.789,120.900 144.132 L 119.700 144.300 119.639 145.469 L 119.579 146.637 123.139 146.481 C 127.795 146.277,144.765 146.274,149.061 146.478 L 152.421 146.637 152.361 145.468 L 152.300 144.300 151.100 144.132 C 149.427 143.898,148.477 143.453,147.694 142.539 C 146.199 140.792,146.306 142.925,146.252 113.900 C 146.199 85.642,146.220 86.263,145.383 87.082 M374.900 128.928 C 368.496 129.443,365.203 132.661,365.205 138.400 C 365.208 144.889,368.867 148.042,376.400 148.048 C 383.421 148.053,387.393 144.603,387.393 138.500 C 387.393 132.092,382.468 128.319,374.900 128.928 " stroke="none" fill="#040404" fill-rule="evenodd"></path><path id="path1" d="M0.000 100.000 L 0.000 200.000 200.000 200.000 L 400.000 200.000 400.000 100.000 L 400.000 0.000 200.000 0.000 L 0.000 0.000 0.000 100.000 M139.443 59.104 C 149.158 60.746,150.711 73.611,141.600 76.979 C 133.781 79.869,124.856 76.938,123.393 71.000 C 121.278 62.414,128.287 57.219,139.443 59.104 M75.800 76.700 C 75.800 86.545,75.875 94.600,75.966 94.600 C 76.057 94.600,76.417 94.204,76.764 93.720 C 83.132 84.853,102.364 84.060,107.288 92.461 C 109.410 96.082,109.446 96.498,109.598 119.200 C 109.671 130.035,109.796 139.125,109.876 139.400 C 109.956 139.675,110.126 140.260,110.254 140.700 C 110.846 142.741,112.077 143.727,114.482 144.088 L 115.900 144.300 115.961 145.473 L 116.021 146.646 113.261 146.525 C 106.726 146.239,98.599 146.185,91.810 146.383 C 86.045 146.551,84.488 146.544,84.363 146.348 C 84.106 145.943,84.172 144.395,84.450 144.315 C 84.588 144.275,85.219 144.136,85.852 144.007 C 89.444 143.270,89.401 143.588,89.398 118.084 C 89.395 96.609,89.401 96.771,88.511 94.894 C 86.426 90.500,78.227 92.531,76.255 97.929 C 75.710 99.419,75.707 139.102,76.252 140.791 C 76.944 142.942,77.708 143.652,79.800 144.086 L 80.900 144.315 80.961 145.475 L 81.021 146.636 77.861 146.475 C 73.895 146.273,57.219 146.278,52.750 146.482 L 49.400 146.636 49.400 145.437 L 49.400 144.239 50.633 144.096 C 53.202 143.798,54.400 142.807,55.163 140.345 C 55.553 139.087,55.791 73.816,55.420 69.687 C 54.991 64.903,53.219 62.400,50.261 62.400 L 49.400 62.400 49.400 61.096 L 49.400 59.792 49.950 59.937 C 52.320 60.563,67.988 59.956,73.700 59.018 C 74.250 58.927,74.948 58.841,75.250 58.827 L 75.800 58.800 75.800 76.700 M36.248 79.150 L 36.300 88.100 41.750 88.153 L 47.200 88.206 47.200 89.303 C 47.200 89.906,47.178 90.419,47.150 90.442 C 47.123 90.465,44.670 90.532,41.700 90.592 L 36.300 90.700 36.300 114.900 C 36.300 137.679,36.321 139.138,36.654 139.748 C 37.839 141.916,41.914 141.482,44.649 138.897 C 45.768 137.840,45.720 137.848,46.550 138.603 C 47.362 139.342,47.366 139.294,46.381 140.717 C 40.009 149.921,23.378 150.879,18.236 142.337 C 16.084 138.762,16.000 137.616,16.000 111.709 L 16.000 90.600 11.950 90.597 C 7.301 90.593,7.354 90.609,7.438 89.281 L 7.500 88.300 11.700 88.200 L 15.900 88.100 15.953 81.550 C 15.982 77.948,16.072 74.998,16.153 74.996 C 23.592 74.788,29.300 73.546,34.200 71.070 C 35.135 70.597,35.967 70.208,36.048 70.205 C 36.129 70.202,36.219 74.228,36.248 79.150 M289.803 78.950 C 289.805 83.763,289.882 87.820,289.975 87.966 C 290.108 88.177,291.156 88.226,295.022 88.203 C 297.705 88.187,301.340 88.268,303.100 88.383 C 311.054 88.902,317.147 88.990,324.200 88.687 C 327.995 88.525,331.595 88.371,332.200 88.346 L 333.300 88.300 333.365 88.978 C 333.502 90.412,333.336 90.600,331.933 90.600 C 325.510 90.600,325.357 91.578,330.104 102.300 C 330.250 102.630,330.652 103.575,330.997 104.400 C 331.341 105.225,331.708 106.080,331.812 106.300 C 331.915 106.520,333.915 111.290,336.255 116.900 C 338.595 122.510,340.592 127.230,340.691 127.390 C 340.859 127.657,343.047 121.338,345.536 113.400 C 349.503 100.745,347.789 92.728,340.700 90.788 L 339.500 90.459 339.500 89.380 L 339.500 88.300 342.000 88.400 C 343.375 88.455,347.245 88.500,350.600 88.500 C 353.955 88.500,357.420 88.455,358.300 88.400 L 359.900 88.300 359.959 89.422 C 360.017 90.515,360.002 90.551,359.382 90.807 C 355.695 92.334,354.115 95.063,350.293 106.499 C 346.456 117.976,337.659 144.081,336.913 146.200 C 336.507 147.355,335.961 148.930,335.701 149.700 C 331.310 162.686,329.829 165.026,324.900 166.755 C 318.384 169.041,307.434 166.896,304.363 162.733 C 298.675 155.019,306.321 146.602,316.945 148.881 C 325.223 150.657,325.959 160.794,318.095 164.719 C 316.221 165.654,316.299 165.683,320.400 165.556 C 325.662 165.394,328.751 162.756,330.826 156.656 L 331.414 154.928 328.377 148.214 C 326.707 144.521,325.096 140.960,324.797 140.300 C 324.498 139.640,324.071 138.695,323.848 138.200 C 323.625 137.705,322.344 134.870,321.000 131.900 C 319.656 128.930,318.375 126.095,318.152 125.600 C 317.929 125.105,317.501 124.160,317.200 123.500 C 316.899 122.840,316.449 121.850,316.200 121.300 C 315.951 120.750,315.501 119.760,315.200 119.100 C 314.899 118.440,314.470 117.495,314.247 117.000 C 314.024 116.505,312.338 112.770,310.501 108.700 C 308.664 104.630,307.023 100.985,306.855 100.600 C 302.689 91.090,302.041 90.563,294.636 90.646 L 289.900 90.700 289.900 114.800 L 289.900 138.900 290.403 139.800 C 291.591 141.924,295.492 141.477,298.373 138.886 L 299.390 137.972 300.095 138.510 C 300.961 139.170,300.968 139.382,300.161 140.564 C 296.718 145.612,291.712 148.052,284.800 148.051 C 276.980 148.050,271.991 144.909,270.495 139.046 C 269.798 136.315,269.754 134.929,269.667 112.750 L 269.579 90.600 265.514 90.600 C 260.930 90.600,260.934 90.601,261.038 89.165 L 261.100 88.300 265.350 88.246 L 269.600 88.192 269.600 81.614 L 269.600 75.036 271.350 74.921 C 279.035 74.415,283.559 73.336,288.200 70.901 C 288.915 70.526,289.568 70.215,289.650 70.210 C 289.733 70.204,289.801 74.138,289.803 78.950 M199.136 86.813 C 205.053 87.616,208.000 91.342,208.000 98.019 C 208.000 106.807,199.965 111.704,191.927 107.813 C 186.482 105.177,186.441 96.127,191.855 91.800 C 193.168 90.751,193.230 90.600,192.347 90.600 C 188.614 90.600,183.981 95.375,183.405 99.818 C 183.157 101.724,183.152 134.013,183.398 136.749 C 183.843 141.686,185.841 143.645,190.900 144.105 C 193.024 144.298,193.000 144.283,193.000 145.402 C 193.000 146.677,193.921 146.583,183.528 146.372 C 177.850 146.256,171.032 146.257,165.628 146.372 C 155.977 146.579,156.564 146.656,156.648 145.200 L 156.700 144.300 158.274 144.061 C 160.980 143.650,162.074 142.524,162.681 139.529 C 163.165 137.143,163.161 99.407,162.677 96.588 C 162.018 92.754,160.913 91.369,158.035 90.775 C 156.677 90.495,156.508 90.281,156.635 89.009 L 156.700 88.363 165.400 88.310 C 170.185 88.280,174.910 88.160,175.900 88.043 C 178.835 87.696,182.061 87.243,182.650 87.095 L 183.200 86.957 183.200 90.667 C 183.200 94.952,183.236 95.028,184.405 93.240 C 186.806 89.568,190.746 87.291,195.500 86.829 C 196.490 86.733,197.361 86.642,197.436 86.627 C 197.510 86.612,198.275 86.696,199.136 86.813 M236.577 86.805 C 241.287 87.165,244.747 87.929,247.600 89.240 C 249.964 90.326,250.363 90.427,251.244 90.163 C 252.206 89.875,252.884 89.042,253.209 87.750 L 253.447 86.800 254.549 86.800 L 255.651 86.800 255.528 89.150 C 255.461 90.442,255.347 94.988,255.275 99.250 L 255.144 107.000 254.092 107.000 L 253.040 107.000 252.829 106.050 C 252.714 105.528,252.565 104.785,252.498 104.400 C 251.132 96.499,247.246 91.001,242.108 89.702 C 232.832 87.355,229.178 96.153,236.336 103.599 C 238.032 105.364,239.565 106.683,244.600 110.714 C 252.799 117.279,256.361 121.620,257.632 126.600 C 261.657 142.371,241.202 153.711,223.800 145.356 C 220.412 143.730,219.195 143.321,218.154 143.461 C 216.863 143.634,216.137 144.488,215.178 146.960 C 214.867 147.762,212.887 147.532,212.934 146.700 C 212.953 146.370,213.027 141.510,213.097 135.900 C 213.250 123.719,213.122 124.763,214.456 124.840 L 215.500 124.900 215.923 127.406 C 217.971 139.534,224.842 147.063,232.100 145.129 C 235.533 144.214,236.707 142.595,236.687 138.800 C 236.662 133.876,235.065 131.377,227.448 124.336 C 222.512 119.775,219.227 116.496,217.863 114.771 C 208.002 102.299,214.715 88.600,231.562 86.816 C 233.774 86.582,233.653 86.582,236.577 86.805 M146.098 87.450 C 146.156 87.698,146.225 99.600,146.252 113.900 C 146.306 142.925,146.199 140.792,147.694 142.539 C 148.477 143.453,149.427 143.898,151.100 144.132 L 152.300 144.300 152.361 145.468 L 152.421 146.637 149.061 146.478 C 144.765 146.274,127.795 146.277,123.139 146.481 L 119.579 146.637 119.639 145.469 L 119.700 144.300 120.900 144.132 C 123.348 143.789,124.622 142.785,125.325 140.644 C 125.891 138.918,125.909 97.263,125.344 95.200 C 124.612 92.523,123.305 91.212,120.921 90.759 L 119.583 90.506 119.641 89.421 L 119.700 88.336 127.300 88.375 C 132.914 88.403,135.684 88.333,137.900 88.108 C 141.132 87.778,145.248 87.214,145.383 87.082 C 145.617 86.853,146.005 87.052,146.098 87.450 M379.900 129.238 C 385.320 130.240,388.327 135.093,387.104 140.865 C 386.081 145.691,382.563 148.052,376.400 148.048 C 368.867 148.042,365.208 144.889,365.205 138.400 C 365.203 131.260,371.065 127.605,379.900 129.238 " stroke="none" fill="#fbfbfb" fill-rule="evenodd"></path></g></svg>